<mxfile host="65bd71144e">
    <diagram id="nqzTyrHb5WO1XzP2SndS" name="Page-1">
        <mxGraphModel dx="1074" dy="787" grid="1" gridSize="10" guides="1" tooltips="1" connect="1" arrows="1" fold="1" page="1" pageScale="1" pageWidth="827" pageHeight="1169" math="0" shadow="0">
            <root>
                <mxCell id="0"/>
                <mxCell id="1" parent="0"/>
                <mxCell id="25" style="edgeStyle=none;html=1;" edge="1" parent="1" source="28" target="31">
                    <mxGeometry relative="1" as="geometry"/>
                </mxCell>
                <mxCell id="26" style="edgeStyle=orthogonalEdgeStyle;html=1;rounded=0;" edge="1" parent="1" source="28" target="34">
                    <mxGeometry relative="1" as="geometry">
                        <Array as="points">
                            <mxPoint x="414" y="150"/>
                        </Array>
                    </mxGeometry>
                </mxCell>
                <mxCell id="27" style="edgeStyle=orthogonalEdgeStyle;html=1;rounded=0;entryX=0.5;entryY=0;entryDx=0;entryDy=0;" edge="1" parent="1" source="28" target="37">
                    <mxGeometry relative="1" as="geometry">
                        <Array as="points">
                            <mxPoint x="414" y="150"/>
                            <mxPoint x="560" y="150"/>
                        </Array>
                    </mxGeometry>
                </mxCell>
                <mxCell id="28" value="Area &amp;amp; Perimeter" style="rounded=0;whiteSpace=wrap;html=1;" vertex="1" parent="1">
                    <mxGeometry x="354" y="70" width="120" height="60" as="geometry"/>
                </mxCell>
                <mxCell id="45" style="edgeStyle=none;rounded=0;html=1;" edge="1" parent="1" source="31" target="44">
                    <mxGeometry relative="1" as="geometry"/>
                </mxCell>
                <mxCell id="31" value="Process" style="rounded=0;whiteSpace=wrap;html=1;" vertex="1" parent="1">
                    <mxGeometry x="354" y="170" width="120" height="60" as="geometry"/>
                </mxCell>
                <mxCell id="32" style="edgeStyle=orthogonalEdgeStyle;html=1;entryX=0.5;entryY=0;entryDx=0;entryDy=0;rounded=0;" edge="1" parent="1" source="34" target="38">
                    <mxGeometry relative="1" as="geometry"/>
                </mxCell>
                <mxCell id="33" style="edgeStyle=orthogonalEdgeStyle;html=1;entryX=0.5;entryY=0;entryDx=0;entryDy=0;rounded=0;" edge="1" parent="1" source="34" target="39">
                    <mxGeometry relative="1" as="geometry"/>
                </mxCell>
                <mxCell id="34" value="Input" style="rounded=0;whiteSpace=wrap;html=1;" vertex="1" parent="1">
                    <mxGeometry x="160" y="170" width="120" height="60" as="geometry"/>
                </mxCell>
                <mxCell id="35" style="edgeStyle=orthogonalEdgeStyle;html=1;rounded=0;" edge="1" parent="1" source="37" target="41">
                    <mxGeometry relative="1" as="geometry"/>
                </mxCell>
                <mxCell id="37" value="Output" style="rounded=0;whiteSpace=wrap;html=1;" vertex="1" parent="1">
                    <mxGeometry x="500" y="170" width="120" height="60" as="geometry"/>
                </mxCell>
                <mxCell id="38" value="Get Number #1&amp;nbsp;" style="rounded=0;whiteSpace=wrap;html=1;" vertex="1" parent="1">
                    <mxGeometry x="90" y="260" width="120" height="60" as="geometry"/>
                </mxCell>
                <mxCell id="39" value="Get Number # 2" style="rounded=0;whiteSpace=wrap;html=1;" vertex="1" parent="1">
                    <mxGeometry x="230" y="260" width="110" height="60" as="geometry"/>
                </mxCell>
                <mxCell id="41" value="Show total" style="rounded=0;whiteSpace=wrap;html=1;" vertex="1" parent="1">
                    <mxGeometry x="500" y="260" width="120" height="60" as="geometry"/>
                </mxCell>
                <mxCell id="44" value="Number #1 + Number #2 = total" style="rounded=0;whiteSpace=wrap;html=1;" vertex="1" parent="1">
                    <mxGeometry x="354" y="260" width="120" height="60" as="geometry"/>
                </mxCell>
            </root>
        </mxGraphModel>
    </diagram>
</mxfile>